<svg width="1655" height="1655" viewBox="0 0 1655 1655" fill="none" xmlns="http://www.w3.org/2000/svg">
<rect x="15" y="15" width="1625" height="1625" rx="385" fill="url(#paint0_linear_170_25)" stroke="#C2C7CB" stroke-width="30"/>
<path d="M909 567.282V900.828C909 924.682 943 952.882 960 964V573.851C961.505 562.592 971.791 553.299 980.411 547.739C985.222 544.636 990.962 543.529 996.687 543.529H1205C1213.53 543.529 1220.04 549.957 1224.53 556.396C1228.19 561.64 1229.5 568.091 1229.5 574.486V630.453C1229.5 664.5 1255 696.657 1283.5 696.657H1355C1369.8 697.061 1375.67 721.887 1376.5 732.5C1396.5 710.264 1415 700.195 1422 699.689C1422 670.58 1414.67 653.532 1411 648.647C1291.4 505.929 1249 491.648 1229.5 490.465C1174 487.096 1048 482.379 988 490.465C928 498.551 910.333 545.045 909 567.282Z" fill="url(#paint1_linear_170_25)"/>
<path d="M612.5 1147.92H725V744.916C759.4 794.516 807.667 923.25 827.5 981.416C867.1 1116.62 939 1153.42 970 1154.92C1025.5 1154.92 1041.4 1136.64 1063.5 1095.42C1085.6 1054.19 1129 924.916 1129 924.916C1129 924.916 1185 1083.42 1206 1121.92C1227 1160.42 1269.5 1160.42 1269.5 1160.42C1309.1 1159.62 1329.5 1135 1337 1121.92C1384.35 1039.32 1422 893.416 1422 893.416V697.416C1388 709.016 1372.5 733.916 1369 744.916L1269.5 986.917C1251.33 938.916 1210 831.816 1190 787.417C1170 743.017 1153 736.999 1129 736.999C1087.5 736.999 1076 767.999 1065.5 787.417L1018 898.499C1012 911.499 981.333 965.416 970 964.916C950.8 969.316 916.333 915.083 901.5 887.416L827.5 682.916C771.5 551.316 714 536.417 682 536.417C631.22 536.417 575.603 608.367 532.153 682.916C510.573 719.941 491.995 757.606 478.5 787.417L347 545.917H233V1147.92H347V762.417L478.5 986.917L612.5 762.417V1147.92Z" fill="url(#paint2_linear_170_25)" fill-opacity="0.4"/>
<path d="M612.5 1147.92H725V744.916C759.4 794.516 807.667 923.25 827.5 981.416C867.1 1116.62 939 1153.42 970 1154.92C1025.5 1154.92 1041.4 1136.64 1063.5 1095.42C1085.6 1054.19 1129 924.916 1129 924.916C1129 924.916 1185 1083.42 1206 1121.92C1227 1160.42 1269.5 1160.42 1269.5 1160.42C1309.1 1159.62 1329.5 1135 1337 1121.92C1384.35 1039.32 1422 893.416 1422 893.416V697.416C1388 709.016 1372.5 733.916 1369 744.916L1269.5 986.917C1251.33 938.916 1210 831.816 1190 787.417C1170 743.017 1153 736.999 1129 736.999C1087.5 736.999 1076 767.999 1065.5 787.417L1018 898.499C1012 911.499 981.333 965.416 970 964.916C950.8 969.316 916.333 915.083 901.5 887.416L827.5 682.916C771.5 551.316 714 536.417 682 536.417C631.22 536.417 575.603 608.367 532.153 682.916C510.573 719.941 491.995 757.606 478.5 787.417L347 545.917H233V1147.92H347V762.417L478.5 986.917L612.5 762.417V1147.92Z" fill="url(#paint3_linear_170_25)" fill-opacity="0.9"/>
<path d="M1378.5 730C1386.5 719 1409 702.5 1420 700V713.5C1406.8 720.3 1396 725.5 1383.5 745.5L1315.5 903.5L1296 926.5L1306 902L1341 816.5L1371.5 743.5L1378.5 730Z" fill="url(#paint4_linear_170_25)" fill-opacity="0.5"/>
<path d="M1053.5 890.001C1037.5 930.168 986 1024.23 918 1029.03C854.638 1033.5 812.492 946.265 803 912.5C802.305 910.028 801.5 908 801.5 906C842.5 1000 891.833 1014.2 918 1013.03C942.513 1008.39 964.239 984.548 982.5 960C1017 918.5 1034.3 862.085 1043 845C1056.5 818.5 1071.5 762.5 1099.5 746.5C1107.21 741.786 1115.5 740.013 1128 739C1170.05 735.591 1182.5 778.501 1191.5 795.501C1113.9 738.701 1092.14 793.001 1053.5 890.001Z" fill="url(#paint5_linear_170_25)"/>
<path d="M256.5 934.773V918.773L320.5 890.591V909L276.682 926.591L277.273 925.636V927.909L276.682 926.955L320.5 944.545V962.955L256.5 934.773Z" fill="#C0C4CA"/>
<path d="M256.5 1089.77V1073.77L320.5 1045.59V1064L276.682 1081.59L277.273 1080.64V1082.91L276.682 1081.95L320.5 1099.55V1117.95L256.5 1089.77Z" fill="#C0C4CA"/>
<path d="M702.5 1074.23V1090.23L638.5 1118.41V1100L682.318 1082.41L681.727 1083.36V1081.09L682.318 1082.05L638.5 1064.45V1046.05L702.5 1074.23Z" fill="#C0C4CA"/>
<path d="M670 973L685.273 879.909H699.818L684.545 973H670ZM628.318 949.909L630.727 935.364H703.455L701.045 949.909H628.318ZM637.273 973L652.545 879.909H667.091L651.818 973H637.273ZM633.636 917.545L636.091 903H708.818L706.364 917.545H633.636Z" fill="#C0C4CA"/>
<defs>
<linearGradient id="paint0_linear_170_25" x1="827.5" y1="0" x2="827.5" y2="1655" gradientUnits="userSpaceOnUse">
<stop stop-color="#F5F8FA"/>
<stop offset="0.298077" stop-color="#F0F6FC"/>
<stop offset="0.6" stop-color="#E7F4FF"/>
<stop offset="1" stop-color="#F6F6F6"/>
</linearGradient>
<linearGradient id="paint1_linear_170_25" x1="1165.5" y1="486" x2="1165.5" y2="964" gradientUnits="userSpaceOnUse">
<stop stop-color="#76B2DF"/>
<stop offset="1" stop-color="#325E96"/>
</linearGradient>
<linearGradient id="paint2_linear_170_25" x1="1132" y1="498" x2="1136" y2="1161" gradientUnits="userSpaceOnUse">
<stop stop-color="#4376AF"/>
<stop offset="1" stop-color="#00205B"/>
</linearGradient>
<linearGradient id="paint3_linear_170_25" x1="233" y1="555.5" x2="1749.5" y2="917.5" gradientUnits="userSpaceOnUse">
<stop stop-color="#404649"/>
<stop offset="0.168917" stop-color="#2E3235"/>
<stop offset="0.309399" stop-color="#535353"/>
<stop offset="0.384615" stop-color="#32353B"/>
<stop offset="0.475962" stop-color="#4378AA"/>
<stop offset="0.644231" stop-color="#497CB4"/>
<stop offset="0.826923" stop-color="#3C6DA5"/>
<stop offset="1" stop-color="#284F8D"/>
</linearGradient>
<linearGradient id="paint4_linear_170_25" x1="1419" y1="698" x2="1296" y2="953" gradientUnits="userSpaceOnUse">
<stop stop-color="#A4DAFF"/>
<stop offset="1" stop-color="#5885B7"/>
</linearGradient>
<linearGradient id="paint5_linear_170_25" x1="1191" y1="748" x2="801" y2="1029" gradientUnits="userSpaceOnUse">
<stop stop-color="white" stop-opacity="0.2"/>
<stop offset="0.221154" stop-color="#CBDBED" stop-opacity="0.3"/>
<stop offset="0.519231" stop-color="#9CB6D4" stop-opacity="0.4"/>
<stop offset="0.807692" stop-color="#6F92BD" stop-opacity="0.5"/>
<stop offset="1" stop-color="#517AAD" stop-opacity="0.6"/>
</linearGradient>
</defs>
</svg>
